<?xml version="1.0" encoding="utf-8"?>
<!-- Svg Vector Icons : http://www.onlinewebfonts.com/icon -->
<!DOCTYPE svg PUBLIC "-//W3C//DTD SVG 1.1//EN" "http://www.w3.org/Graphics/SVG/1.1/DTD/svg11.dtd">
<svg version="1.1" xmlns="http://www.w3.org/2000/svg" xmlns:xlink="http://www.w3.org/1999/xlink" x="0px" y="0px" viewBox="0 0 1000 1000" enable-background="new 0 0 1000 1000" xml:space="preserve">
<metadata> Svg Vector Icons : http://www.onlinewebfonts.com/icon </metadata>
<g><g transform="translate(0.000000,511.000000) scale(0.100000,-0.100000)"><path d="M6030.8,4972.2c-356.7-117.6-693.8-427.2-819.2-752.5l-66.6-172.5H2726.7c-2387,0-2422.3,0-2524.2-82.3c-125.4-98-137.2-294-27.4-431.1l74.5-94.1l2445.8-11.8l2449.7-7.8l82.3-188.1c133.3-294,333.2-497.8,623.2-642.8c227.3-109.7,301.8-129.3,560.5-129.3c235.2,3.9,341,23.5,513.4,105.8c799.6,368.4,1011.3,1379.7,431.2,2042.1c-192,215.6-572.2,388-893.6,403.7C6305.2,5019.2,6128.8,5003.5,6030.8,4972.2z M6579.6,4396c196-50.9,403.7-239.1,462.5-415.5c152.9-466.4-164.6-913.2-650.6-913.2c-215.6,0-364.5,70.5-505.6,235.2c-317.5,380.2-164.6,909.3,317.5,1081.8C6387.5,4447,6395.3,4447,6579.6,4396z"/><path d="M8460.9,4008c-172.4-70.5-223.4-317.5-90.1-462.5c105.8-113.7,254.8-133.3,858.4-117.6c493.8,11.8,525.2,15.7,595.7,105.8c109.8,137.2,98,333.2-27.4,431.1c-94.1,74.5-156.8,82.3-678.1,78.4C8805.8,4043.3,8508,4027.6,8460.9,4008z"/><path d="M2330.8,1311.4C1982,1170.3,1711.5,892,1586.1,551L1535.2,402H896.3c-587.9,0-646.7-7.8-717.3-78.4C69.3,213.9,77.1,6.2,190.8-99.6C277-182,320.1-185.9,908-185.9h627.1l50.9-145c129.4-356.7,489.9-693.8,846.6-791.7c556.6-152.8,1171.9,90.1,1454.1,564.4c137.2,235.2,176.4,388,176.4,697.6c0,458.6-254.8,874.1-678.1,1105.3C3110.8,1393.7,2613,1425,2330.8,1311.4z M3028.5,750.9c250.8-94.1,442.9-372.4,442.9-642.8c0-721.2-999.5-936.8-1297.4-278.3c-90.1,203.8-90.1,352.8,0,552.7C2330.8,723.4,2691.4,880.2,3028.5,750.9z"/><path d="M4792.3,355c-156.8-121.5-141.1-450.7,31.3-517.4c35.3-11.8,1152.4-23.5,2485-23.5h2422.2l82.3,90.1c109.7,117.6,113.7,313.5,7.8,419.4C9742.6,402,9691.7,402,7300.8,402C5407.6,402,4843.2,390.3,4792.3,355z"/><path d="M5207.7-2294.6c-113.7-39.2-274.4-121.5-360.6-180.3c-172.5-121.5-415.5-450.7-458.6-619.3L4365-3200l-2049.9-11.8c-1951.9-11.8-2053.8-15.7-2132.2-86.2c-54.9-51-82.3-121.5-82.3-219.5c0-98,27.4-168.5,82.3-219.5c78.4-70.5,180.3-74.5,2132.2-86.2L4369-3835l23.5-117.6c27.4-117.6,239.1-423.3,388-556.5c337.1-297.9,944.6-372.3,1364-172.5c780,380.2,979.9,1407.1,391.9,2034.3C6195.4-2278.9,5650.6-2137.8,5207.7-2294.6z M5999.5-2953.1c278.3-180.3,364.5-654.5,176.4-928.9c-148.9-219.5-352.8-313.6-623.2-294c-270.4,19.6-442.9,125.4-552.6,344.9c-203.8,399.8,35.3,905.4,466.4,979.9C5635-2823.7,5870.1-2866.8,5999.5-2953.1z"/><path d="M7610.4-3286.2c-133.2-105.8-145-337.1-19.6-450.7c78.4-70.5,156.8-74.5,1121-74.5h1038.7l74.5,94.1c109.8,137.2,98,333.1-27.4,431.1c-98,78.4-152.9,82.3-1093.6,82.3C7763.3-3203.9,7708.4-3207.8,7610.4-3286.2z"/></g></g>
</svg>