<?xml version="1.0" encoding="UTF-8" standalone="no"?>
<svg
   width="40"
   height="40"
   viewBox="0 0 40 40"
   fill="none"
   version="1.1"
   id="svg59"
   sodipodi:docname="icon.svg"
   inkscape:version="1.1.2 (b8e25be833, 2022-02-05)"
   xmlns:inkscape="http://www.inkscape.org/namespaces/inkscape"
   xmlns:sodipodi="http://sodipodi.sourceforge.net/DTD/sodipodi-0.dtd"
   xmlns="http://www.w3.org/2000/svg"
   xmlns:svg="http://www.w3.org/2000/svg">
  <sodipodi:namedview
     id="namedview61"
     pagecolor="#ffffff"
     bordercolor="#666666"
     borderopacity="1.0"
     inkscape:pageshadow="2"
     inkscape:pageopacity="0.0"
     inkscape:pagecheckerboard="0"
     showgrid="false"
     inkscape:zoom="19.225"
     inkscape:cx="16.384915"
     inkscape:cy="20"
     inkscape:window-width="1920"
     inkscape:window-height="991"
     inkscape:window-x="-9"
     inkscape:window-y="-9"
     inkscape:window-maximized="1"
     inkscape:current-layer="svg59" />
  <path
     d="M20.0003 27.0587C19.3533 27.0587 18.8239 26.5292 18.8239 25.8822C18.8239 21.3528 15.118 17.6469 10.5886 17.6469C9.94152 17.6469 9.41211 17.1175 9.41211 16.4704C9.41211 15.8234 9.94152 15.2939 10.5886 15.2939C16.4415 15.2939 21.1768 20.0292 21.1768 25.8822C21.1768 26.5292 20.6474 27.0587 20.0003 27.0587Z"
     fill="url(#paint0_linear_142502_158)"
     id="path36" />
  <path
     d="M30.5884 16.4704C30.5884 17.1175 30.0589 17.6469 29.4119 17.6469C26.6178 17.6469 24.1178 19.0587 22.6472 21.2057C22.3236 20.3822 21.9413 19.6175 21.4707 18.9116C23.4119 16.6763 26.2648 15.2939 29.4119 15.2939C30.0589 15.2939 30.5884 15.8234 30.5884 16.4704Z"
     fill="url(#paint1_linear_142502_158)"
     id="path38" />
  <path
     d="M20 40C8.97059 40 0 31.0294 0 20C0 8.97059 8.97059 0 20 0C31.0294 0 40 8.97059 40 20C40 31.0294 31.0294 40 20 40ZM20 2.35294C10.2647 2.35294 2.35294 10.2647 2.35294 20C2.35294 29.7353 10.2647 37.6471 20 37.6471C29.7353 37.6471 37.6471 29.7353 37.6471 20C37.6471 10.2647 29.7353 2.35294 20 2.35294Z"
     fill="url(#paint2_linear_142502_158)"
     id="path40" />
  <defs
     id="defs57">
    <linearGradient
       id="paint0_linear_142502_158"
       x1="15.2945"
       y1="15.2939"
       x2="15.2945"
       y2="27.0587"
       gradientUnits="userSpaceOnUse">
      <stop
         stop-color="#BC9CFF"
         id="stop42" />
      <stop
         offset="1"
         stop-color="#8BA4F9"
         id="stop44" />
    </linearGradient>
    <linearGradient
       id="paint1_linear_142502_158"
       x1="26.0295"
       y1="15.2939"
       x2="26.0295"
       y2="21.2057"
       gradientUnits="userSpaceOnUse">
      <stop
         stop-color="#6FCF97"
         id="stop47" />
      <stop
         offset="1"
         stop-color="#66D2EA"
         id="stop49" />
    </linearGradient>
    <linearGradient
       id="paint2_linear_142502_158"
       x1="20"
       y1="0"
       x2="20"
       y2="40"
       gradientUnits="userSpaceOnUse">
      <stop
         stop-color="#BC9CFF"
         id="stop52" />
      <stop
         offset="1"
         stop-color="#8BA4F9"
         id="stop54" />
    </linearGradient>
  </defs>
</svg>
